<svg width="297" height="512" viewBox="0 0 297 512" fill="none" xmlns="http://www.w3.org/2000/svg">
<path d="M151 128.67L254.862 159.92C257.856 160.821 260.298 157.429 258.495 154.875L153.628 6.39099C152.334 4.55932 149.627 4.5315 148.296 6.33621L38.7462 154.878C36.8819 157.406 39.2845 160.859 42.3027 159.989L151 128.67ZM151 128.67L259.047 285.481C260.768 287.979 258.477 291.277 255.535 290.535L151 264.17M151 128.67L38.3809 294.258C36.6212 296.846 39.1291 300.196 42.1075 299.237L151 264.17M151 264.17L290.878 428.249C292.698 430.383 291.181 433.67 288.376 433.67H192.288C190.472 433.67 189 435.142 189 436.958V503.382C189 505.198 187.528 506.67 185.712 506.67H119.788C117.972 506.67 116.5 505.198 116.5 503.382V436.958C116.5 435.142 115.028 433.67 113.212 433.67H8.30032C5.4667 433.67 3.96016 430.325 5.83804 428.203L151 264.17Z" stroke="#452B52" stroke-width="10"/>
</svg>
