<svg width="304" height="350" viewBox="0 0 304 350" fill="none" xmlns="http://www.w3.org/2000/svg">
<path d="M151.751 5.77344L297.684 90.0278C298.19 90.32 298.501 90.86 298.501 91.4444V259.009C298.501 259.593 298.19 260.133 297.684 260.425L152.569 344.208C152.063 344.5 151.439 344.5 150.933 344.208L5.81783 260.425C5.31175 260.133 5 259.593 5 259.009V91.4444C5 90.86 5.31176 90.32 5.81783 90.0278L151.751 5.77344ZM151.751 5.77344L225.127 90.5M151.751 5.77344L78.3762 90.5M151.749 5.77344V90.748M151.749 260.091V344.679M5 90.5042H296.866C297.77 90.5042 298.502 91.2365 298.502 92.1399V258.322C298.502 259.225 297.77 259.957 296.866 259.957H5M5 90.5042V259.957M5 90.5042L78.3762 175.231M5 259.957L78.3762 175.231M78.3762 259.952L150.515 343.251C151.167 344.004 152.336 344.004 152.988 343.251L225.127 259.952M78.3762 175.231L150.515 91.9319C151.167 91.1788 152.335 91.1788 152.988 91.9319L224.199 174.16C224.732 174.775 224.732 175.687 224.199 176.302L152.988 258.53C152.336 259.283 151.167 259.283 150.515 258.53L78.3762 175.231ZM298.501 90.5042L226.052 174.16C225.52 174.775 225.52 175.687 226.052 176.302L298.501 259.957M5.92733 174.16L77.139 91.9319C77.7913 91.1788 78.9597 91.1788 79.6119 91.9319L150.823 174.16C151.355 174.775 151.355 175.687 150.823 176.302L79.6119 258.53C78.9597 259.283 77.7913 259.283 77.139 258.53L5.92733 176.302C5.39504 175.687 5.39504 174.775 5.92733 174.16ZM152.676 174.16L223.888 91.9319C224.54 91.1788 225.709 91.1788 226.361 91.9319L297.573 174.16C298.105 174.775 298.105 175.687 297.573 176.302L226.361 258.53C225.709 259.283 224.54 259.283 223.888 258.53L152.676 176.302C152.144 175.687 152.144 174.775 152.676 174.16Z" stroke="#452B52" stroke-width="10"/>
</svg>
