<svg width="300" height="344" viewBox="0 0 300 344" fill="none" xmlns="http://www.w3.org/2000/svg">
<path d="M149.702 4.80273V88.5908M221.558 212.899L294.405 255.431M77.8465 212.899L5 255.431M219.361 212.905H80.0467C79.0694 212.905 78.4586 211.847 78.9473 211L148.605 90.3503C149.093 89.5039 150.315 89.504 150.804 90.3503L220.461 211C220.949 211.847 220.339 212.905 219.361 212.905ZM7.20243 88.3436H292.207C293.185 88.3436 293.795 89.4015 293.307 90.2479L150.804 337.069C150.316 337.915 149.094 337.915 148.605 337.069L6.103 90.2479C5.61436 89.4015 6.22516 88.3436 7.20243 88.3436ZM5.63832 87.9795L149.07 5.16921C149.463 4.94243 149.946 4.94244 150.339 5.16921L293.771 87.9795C294.164 88.2063 294.406 88.6254 294.406 89.0789V254.7C294.406 255.153 294.164 255.572 293.771 255.799L150.34 338.609C149.947 338.836 149.463 338.836 149.07 338.609L5.63832 255.799C5.24554 255.572 5.00357 255.153 5.00357 254.7V89.0789C5.00357 88.6254 5.24554 88.2063 5.63832 87.9795Z" stroke="#452B52" stroke-width="10"/>
</svg>
