<svg width="300" height="281" viewBox="0 0 300 281" fill="none" xmlns="http://www.w3.org/2000/svg">
<path d="M149.688 272.5L5.86332 90.7496C4.61812 89.176 4.73151 86.9234 6.12842 85.4828L65.0755 25.7562C67.1709 23.5953 70.8122 24.4357 71.7486 27.2963L149.688 272.5ZM149.688 272.5L293.928 90.8462C295.209 89.2321 295.055 86.9084 293.57 85.4783L232.355 26.4972C230.212 24.4325 226.645 25.3473 225.761 28.1885L149.688 272.5ZM149.688 272.5V33M229.188 21.5C229.188 30.6127 193.37 38 149.188 38C105.005 38 69.1875 30.6127 69.1875 21.5C69.1875 12.3873 105.005 5 149.188 5C193.37 5 229.188 12.3873 229.188 21.5Z" stroke="#452B52" stroke-width="10"/>
</svg>
