<svg width="249" height="494" viewBox="0 0 249 494" fill="none" xmlns="http://www.w3.org/2000/svg">
<path d="M121.413 5.41749C263.668 2.43296 263.421 164.217 212.715 200.851C212.269 201.173 212.153 201.767 212.457 202.225C231.76 231.309 251.273 298.729 178.739 342.721C178.534 342.845 178.373 343.043 178.298 343.27L130.854 487.558C130.554 488.472 129.262 488.476 128.956 487.564L80.5527 343.33C80.4643 343.067 80.2798 342.857 80.0274 342.741C48.0832 328.068 -3.80853 279.776 40.5333 202.081C40.7531 201.696 40.6898 201.182 40.3853 200.859C-49.6897 105.495 52.5483 -2.56766 121.413 5.41749Z" stroke="#452B52" stroke-width="10"/>
</svg>
