<svg width="319" height="423" viewBox="0 0 319 423" fill="none" xmlns="http://www.w3.org/2000/svg">
<path d="M237.001 150.256C213.033 141.219 174.881 122.115 157.899 113.226C157.399 112.965 157.231 112.349 157.508 111.858L187.501 58.7559M237.001 150.256C267.501 161.756 200.001 327.256 143.501 321.256M237.001 150.256L307.138 93.7559M237.001 150.256L187.501 58.7559M143.501 321.256C126.423 303.349 86.7144 269.508 63.8561 276.641C63.6256 276.713 63.4389 276.862 63.3164 277.07C43.9219 310.013 5.40005 376.37 5.00132 380.756C4.69199 384.159 58.7327 429.281 129 413.828M143.501 321.256L39.3802 322.233C38.4927 322.242 38.0551 323.316 38.6842 323.942L129 413.828M143.501 321.256L129 413.828M307.138 93.7559C327.858 161.713 296.651 245.124 268.501 292.256C221.788 371.764 172.311 404.303 129 413.828M307.138 93.7559C295.899 56.8941 269.382 24.579 218.811 5.06657C218.35 4.88852 217.821 5.07426 217.578 5.50491L187.501 58.7559M307.138 93.7559L187.501 58.7559" stroke="#452B52" stroke-width="10"/>
</svg>
