<svg width="304" height="350" viewBox="0 0 304 350" fill="none" xmlns="http://www.w3.org/2000/svg">
<path d="M5 259.95L150.931 344.203C151.437 344.495 152.061 344.495 152.567 344.203L298.498 259.95M5 259.95V91.4433C5 90.8589 5.31176 90.3189 5.81784 90.0267L151.749 5.77344M5 259.95H298.498M5 259.95L151.749 5.77344M298.498 259.95V91.4433C298.498 90.8589 298.186 90.3189 297.68 90.0268L151.749 5.77344M298.498 259.95L151.749 5.77344M151.749 344.68V176.173C151.749 175.589 151.437 175.049 150.931 174.757L5 90.5032M151.747 175.229L298.495 90.5032M152.565 91.142L224.156 132.475C224.662 132.767 224.974 133.307 224.974 133.891L224.974 216.558C224.974 217.142 224.663 217.682 224.157 217.974L152.565 259.308C152.059 259.6 151.435 259.6 150.929 259.308L79.3379 217.974C78.8318 217.682 78.5201 217.142 78.5201 216.558V133.891C78.5201 133.307 78.8318 132.767 79.3379 132.475L150.929 91.142C151.435 90.8498 152.059 90.8498 152.565 91.142Z" stroke="#452B52" stroke-width="10"/>
</svg>
