<svg width="293" height="335" viewBox="0 0 293 335" fill="none" xmlns="http://www.w3.org/2000/svg">
<path d="M148.874 4.81212V167.421M288.338 245.588L149.549 167.792C149.13 167.558 148.619 167.558 148.2 167.792L9.40625 245.588M148.868 329.206V166.596M9.40625 88.4189L285.948 88.4192C287.009 88.4192 287.673 89.5685 287.142 90.488L150.065 327.89C149.534 328.81 148.207 328.81 147.677 327.89L9.40625 88.4189ZM9.40625 88.4189L148.869 166.593M288.335 88.4189L148.868 166.593M275.436 166.598C275.436 236.491 218.771 293.151 148.871 293.151C78.9712 293.151 22.3062 236.491 22.3062 166.598C22.3062 96.7039 78.9712 40.0438 148.871 40.0438C218.771 40.0438 275.436 96.7039 275.436 166.598ZM285.948 245.593L11.7951 245.592C10.7334 245.592 10.0699 244.443 10.6008 243.524L147.678 6.12121C148.209 5.20185 149.536 5.20185 150.066 6.12121L287.142 243.524C287.673 244.443 287.01 245.593 285.948 245.593Z" stroke="#452B52" stroke-width="10.8635"/>
</svg>
