<svg width="274" height="514" viewBox="0 0 274 514" fill="none" xmlns="http://www.w3.org/2000/svg">
<path d="M131.5 84.6289L6.56584 134.998C5.8168 135.3 5 134.748 5 133.941V6.14393C5 5.38551 5.72695 4.83866 6.45565 5.04892L131.5 41.1289M131.5 84.6289V41.1289M131.5 84.6289V124.638C131.5 124.951 131.371 125.251 131.143 125.466L59 193.629M131.5 41.1289H183.169C183.385 41.1289 183.597 41.1902 183.779 41.3058L268.133 94.7301C269.207 95.4102 268.53 97.0721 267.287 96.8077L187.877 79.9217C187.168 79.7709 186.5 80.3116 186.5 81.0364V124.638C186.5 124.951 186.629 125.251 186.857 125.466L259 193.629M259 193.629V506.989C259 507.619 258.49 508.129 257.86 508.129H60.1397C59.5103 508.129 59 507.619 59 506.989V437.629M259 193.629H59M259 193.629L186.5 282.079M59 193.629V437.629M59 193.629L186.5 282.079M59 437.629L186.5 282.079M59 437.629H182.382C183.003 437.629 183.51 437.132 183.522 436.511L186.5 282.079" stroke="#452B52" stroke-width="10"/>
</svg>
